<?xml version="1.0" encoding="utf-8"?>
<!-- Generator: Adobe Illustrator 23.0.3, SVG Export Plug-In . SVG Version: 6.00 Build 0)  -->
<svg version="1.1" id="Layer_1" xmlns="http://www.w3.org/2000/svg" xmlns:xlink="http://www.w3.org/1999/xlink" x="0px" y="0px"
	 viewBox="0 0 595.28 595.28" style="enable-background:new 0 0 595.28 595.28;" xml:space="preserve">
<style type="text/css">
	.st0{fill:#27AAE1;}
	.st1{fill:#F26D79;}
	.st2{fill:#FBB040;}
	.st3{fill:#46A480;}
</style>
<path class="st1" d="M562.66,391.48c0-5.41-4.11-9.86-9.38-10.4v-77.31l-11.68-71.22c-0.84-5.09-2.67-9.81-5.27-13.96h3.44
	c2.84,0,5.14-2.3,5.14-5.14v-0.1c0-2.84-2.3-5.14-5.14-5.14h-13.09c-6.3-4.63-14.06-7.34-22.37-7.34h-65.5v-20.45
	c29.82-10.29,46.55-19.81,46.55-19.81s-79.28-45.1-200.32-45.1c-65.04,0-128.9,5.83-174.07,15.09c-10.4-9.6-25.42-14.21-39.37-11.53
	c4.6,5.04,7.42,11.68,7.86,18.49c0.02,0.33,0.05,0.67,0.07,1.01c-20.42,6.52-32.51,14.04-32.51,22.04
	c0,7.98,12.02,15.47,32.32,21.98v20.98c-2.99,1.19-5.79,2.76-8.36,4.64H57.65c-2.84,0-5.14,2.3-5.14,5.14v0.1
	c0,2.84,2.3,5.14,5.14,5.14h3.67c-2.61,4.15-4.44,8.87-5.27,13.96l-11.68,71.22v83.51h-3.96c-4.31,0-7.8,3.49-7.8,7.8v29.59
	c0,4.31,3.49,7.8,7.8,7.8h3.96v13.58h51.17v-12.09c0-18.43,11.02-34.27,26.82-41.33c-11.68,8.86-19.22,22.88-19.22,38.66
	c0,26.79,21.71,48.5,48.5,48.5s48.5-21.71,48.5-48.5c0-15.97-7.73-30.14-19.64-38.98c16.18,6.9,27.51,22.95,27.51,41.65v12.09
	h188.38v-12.09c0-18.43,11.02-34.27,26.82-41.33c-11.68,8.86-19.22,22.88-19.22,38.66c0,26.79,21.71,48.5,48.5,48.5
	s48.5-21.71,48.5-48.5c0-15.97-7.73-30.14-19.64-38.98c16.18,6.9,27.51,22.95,27.51,41.65v12.09h30.62c6.1,0,11.27-3.96,13.09-9.45
	h10.09V391.48z M527.7,230.1l1.81,10.21h-4.73c-5.5,0-9.96,4.46-9.96,9.96v22.53c-16.53-3.68-45.7-4.8-76.01-4.06v-50.14h78.06
	C522.34,219.91,526.68,224.34,527.7,230.1z M305.7,290.83v-6.89c40.71-0.6,81.41-1.46,122.11-2.43v9.32H305.7z M354.24,276.18
	c-15.51,2.91-32.16,1.4-48.54,0.37v-57.96h122.11v50.49C400.22,270.15,372.84,272.68,354.24,276.18z M294.71,218.59v57.4
	c-4.21-0.15-8.37-0.19-12.47-0.03c-28.91,1.1-57.22-0.88-86.13,0.22c-11.18,0.43-22.05-1.41-32.97-2.78v-54.81H294.71z
	 M427.81,200.87h-74.37c29.04-4.14,54.12-10.44,74.37-16.82V200.87z M447.96,158.57c0,2.66-81.29,4.81-181.56,4.81
	s-181.56-2.15-181.56-4.81c0-2.66,81.29-4.81,181.56-4.81S447.96,155.91,447.96,158.57z M89.87,185.68
	c23.84,6.42,56,11.67,92.32,15.19H93.35c-1.17,0-2.33,0.05-3.48,0.16V185.68z M152.15,218.59v53.7c-4.35-0.3-8.71-0.39-13.13-0.08
	c-14.75,1.03-31.12,4.96-43.35-3.36c-2.11-1.44-6.2-3.86-9.89-5.61l5.87-33.14c1.02-5.75,5.36-10.19,10.84-11.51H152.15z
	 M98.12,290.83c-7.35,0-13.24-5.44-14.28-12.26c19.3,5.64,39.94,5.98,60.16,6.13c2.72,0.02,5.43,0.03,8.15,0.04v6.09H98.12z
	 M63.26,292.46c4.45,10.17,13.96,17.98,24.8,20.35c-9.17-0.13-18.35-0.25-27.52-0.38C61,305.73,61.91,299.05,63.26,292.46z
	 M55.71,326.53c2.41,0.25,4.82,0.49,7.22,0.74c-0.94,20-1.87,40.01-2.81,60.01h-4.59C54.55,367.04,54.61,346.76,55.71,326.53z
	 M84.96,397.78l-3.1-12.87c14.69-9.98,30.27-19.37,47.65-23.05c17.37-3.67,37-0.76,49.95,11.4
	C146.43,366.85,110.7,376.12,84.96,397.78z M151.64,457.85c-14.67,0-26.57-11.9-26.57-26.57c0-14.67,11.9-26.57,26.57-26.57
	c14.67,0,26.57,11.9,26.57,26.57C178.21,445.95,166.31,457.85,151.64,457.85z M163.14,290.83v-6.03
	c43.86,0.19,87.72-0.1,131.57-0.71v6.73H163.14z M351.91,429.46c-39.67,2.43-80.28,3.99-118.18-2.34c-2.23-0.37-2-3.07,0.27-3.19
	c39.33-2.08,79.11-1.01,117.98,3.17C353.69,427.29,353.63,429.36,351.91,429.46z M452.48,457.85c-14.67,0-26.57-11.9-26.57-26.57
	c0-14.67,11.9-26.57,26.57-26.57c14.67,0,26.57,11.9,26.57,26.57C479.05,445.95,467.15,457.85,452.48,457.85z M396.98,388.98
	l-11.39-6.09c15.91-10.92,32.98-21.02,51.94-24.58c18.97-3.56,40.3,0.47,53.61,14.45C459.35,364.72,424.25,370.76,396.98,388.98z
	 M382.57,313.21c-57.34,0.39-114.68,0.78-172.03,1.17c4.09-6.29,12.89-6.91,20.39-6.88c43.27,0.18,86.55,0.36,129.82,0.54
	c33.11,0.14,66.28,0.28,99.21,3.7c7.05,0.73,14.2,1.64,20.68,4.5c6.48,2.86,12.31,7.96,14.43,14.72
	C461.11,313.1,420.94,312.94,382.57,313.21z M438.8,290.83v-9.58c26.09-0.63,52.19-1.31,78.28-1.99c1.83,2.22,4.59,3.63,7.69,3.63
	h9.34c-2.36,4.66-7.18,7.94-12.89,7.94H438.8z M513.16,322.5c-0.79-0.36-1.2-1.22-1.55-2.01c-1.81-4.08-3.63-8.15-5.44-12.23
	c9.81-3.36,19.63-6.73,29.44-10.09c1.73,4.44,3.45,8.89,5.18,13.33c-8.25,3.54-16.49,7.08-24.74,10.62
	C515.12,322.52,514.07,322.92,513.16,322.5z M535.19,336.47c4.68,0,8.47,9.23,8.47,20.61s-3.79,20.61-8.47,20.61
	s-8.47-9.23-8.47-20.61S530.51,336.47,535.19,336.47z"/>
</svg>
